<svg xmlns="http://www.w3.org/2000/svg" version="1.1" xmlns:xlink="http://www.w3.org/1999/xlink" xmlns:svgjs="http://svgjs.dev/svgjs" width="5760" height="3240" preserveAspectRatio="none" viewBox="0 0 5760 3240"><g mask="url(&quot;#SvgjsMask1196&quot;)" fill="none"><rect width="5760" height="3240" x="0" y="0" fill="rgba(37, 37, 37, 1)"></rect><path d="M0,1409.822C300.48,1375.737,611.473,1503.856,888.424,1382.414C1185.83,1252.003,1417.687,1003.383,1574.901,719.233C1739.975,420.878,1851.44,78.217,1796.167,-258.25C1741.338,-592.013,1548.599,-905.813,1275.228,-1104.991C1023.548,-1288.365,675.862,-1196.727,379.011,-1290.793C72.712,-1387.853,-167.895,-1684.133,-488.566,-1663.902C-827.713,-1642.506,-1190.23,-1473.625,-1362.833,-1180.902C-1533.246,-891.894,-1289.872,-523.957,-1354.82,-194.794C-1425.472,163.278,-1819.246,441.896,-1753.883,800.971C-1688.121,1162.233,-1375.034,1479.399,-1028.142,1599.82C-692.094,1716.477,-353.454,1449.916,0,1409.822" fill="#181818"></path><path d="M5760 5109.604C6104.283 5111.993 6369.676 4821.485 6636.635 4604.07 6877.3279999999995 4408.0470000000005 7140.22 4208.607 7230.857 3911.718 7317.7029999999995 3627.246 7150.364 3340.554 7112.434 3045.549 7073.76 2744.758 7137.265 2433.834 7005.709 2160.587 6850.5470000000005 1838.309 6634.582 1519.787 6307.814 1374.318 5965.971 1222.137 5532.61 1174.0590000000002 5208.0779999999995 1360.325 4888.698 1543.634 4887.304 2000.415 4683.077 2306.841 4513.282 2561.6040000000003 4187.268 2706.167 4113.125 3003.215 4036.718 3309.335 4142.883 3631.782 4281.647 3915.141 4417.933 4193.441 4650.114 4397.21 4891.149 4591.959 5158.795 4808.209 5415.917 5107.217000000001 5760 5109.604" fill="#323232"></path></g><defs><mask id="SvgjsMask1196"><rect width="5760" height="3240" fill="#ffffff"></rect></mask></defs></svg>